<?xml version="1.0" encoding="UTF-8" standalone="no"?><svg width="1144" height="590" viewBox="0 0 1144 590" fill="none" xmlns="http://www.w3.org/2000/svg">
<path d="M563.795 276.265L420.586 133.208C419.06 131.683 416.468 132.751 416.468 134.886V275.045C416.468 276.418 415.4 277.485 414.027 277.485H380.017C378.645 277.485 377.577 276.418 377.577 275.045V41.3954C377.577 39.2602 380.17 38.1927 381.695 39.7178L591.095 248.813C592.01 249.728 592.01 251.253 591.095 252.168L567.15 276.265C566.235 277.18 564.71 277.18 563.795 276.265Z" fill="white"/>
<path d="M640.509 335.288H604.363C602.838 335.288 601.618 334.067 601.618 332.542V299.447C601.618 297.922 602.838 296.702 604.363 296.702H640.966C702.124 296.702 751.996 246.068 749.098 184.91C746.353 128.48 699.684 83.3364 642.491 83.3364H603.601V163.558C603.601 165.083 602.381 166.303 600.855 166.303H567.76C566.235 166.303 565.015 165.083 565.015 163.558V47.3434C565.015 45.8183 566.235 44.5981 567.76 44.5981H642.644C721.95 44.5981 786.616 108.348 787.989 187.35C789.361 268.944 722.256 335.288 640.509 335.288Z" fill="white"/>
<path d="M561.507 552.313H484.488C414.027 552.313 355.615 496.036 355.005 425.728C354.395 354.657 411.892 296.702 482.81 296.702H561.66C563.337 296.702 564.71 298.075 564.71 299.752V332.39C564.71 334.067 563.337 335.44 561.66 335.44H482.963C433.396 335.44 393.133 376.161 393.896 425.88C394.658 474.837 435.532 513.575 484.336 513.575H561.66C563.337 513.575 564.71 514.948 564.71 516.625V549.263C564.557 550.941 563.185 552.313 561.507 552.313Z" fill="white"/>
<path d="M753.826 552.313H605.126C603.296 552.313 601.618 550.788 601.618 548.805V516.93C601.618 515.1 603.143 513.422 605.126 513.422H753.826C755.656 513.422 757.333 514.947 757.333 516.93V548.805C757.181 550.635 755.656 552.313 753.826 552.313Z" fill="white"/>
</svg>
